<?xml version="1.0" standalone="no"?>
<!DOCTYPE svg PUBLIC "-//W3C//DTD SVG 1.1//EN" "http://www.w3.org/Graphics/SVG/1.1/DTD/svg11.dtd">
<svg xmlns="http://www.w3.org/2000/svg">
<metadata>Generated by Fontastic.me</metadata>
<defs>
<font id="untitled-font-4" horiz-adv-x="512">
<font-face font-family="untitled-font-4" units-per-em="512" ascent="480" descent="-32"/>
<missing-glyph horiz-adv-x="512" />

<glyph unicode="&#97;" d="M256 113c-9 0-18 4-25 11l-220 220c-15 14-15 37 0 51 14 14 36 14 50 0l195-195 195 195c14 14 36 14 50 0 15-14 15-37 0-51l-220-220c-7-7-16-11-25-11z"/>
<glyph unicode="&#98;" d="M399 256c0-9-4-18-11-25l-220-220c-14-15-37-15-51 0-14 14-14 36 0 50l195 195-195 195c-14 14-14 36 0 50 14 15 37 15 51 0l220-220c7-7 11-16 11-25z"/>
<glyph unicode="&#99;" d="M213 448l-98-72-88 0c-15 0-27-12-27-27l0-186c0-14 12-26 27-26l88 0 98-73c17-13 42-1 42 21l0 342c0 22-25 35-42 21z m130-43c-12 12-32 12-44 0-12-12-12-32 0-44 58-58 58-151 0-209-12-12-12-32 0-44 7-6 15-9 22-9 8 0 16 3 22 9 82 82 82 215 0 297z m35 70c-12-12-12-32 0-44 47-47 72-109 72-175 0-66-25-128-72-174-12-12-12-32 0-44 6-7 14-10 22-10 8 0 16 3 21 9 59 58 91 136 91 219 0 82-32 160-91 218-11 13-31 13-43 1z"/>
<glyph unicode="&#100;" d="M507 363c4-5 6-12 5-20l-22-123c-1-7-3-12-9-16-5-4-10-6-17-6l-313 0-6-35 298 0c7 0 14-3 19-8 5-5 8-11 8-19 0-7-3-14-8-19-5-5-12-7-19-7l-330 0c-7 0-14 3-20 9-5 7-7 14-6 22l14 77-21 216-61 19c-8 2-13 7-16 13-3 6-4 13-2 20 2 7 7 13 13 16 7 3 14 4 20 2l78-25c5-2 9-4 12-8 4-5 6-9 6-15l5-43 354-39c7-1 13-5 18-11z m-353-268c11 0 20-4 28-12 8-8 12-17 12-29 0-11-4-21-12-29-8-8-17-12-28-12-12 0-21 4-29 12-8 8-12 18-12 29 0 12 4 21 12 29 8 8 17 12 29 12z m241 0c11 0 21-4 29-12 7-8 11-17 11-29 0-11-4-21-11-29-8-8-18-12-29-12-12 0-21 4-29 12-8 8-12 18-12 29 0 12 4 21 12 29 8 8 17 12 29 12z"/>
<glyph unicode="&#101;" d="M361 170l151 143-94 99z m-51 153l3-9 37-118 46 197 4 15 3 14 0 0-134 31 0-2 38-120z m-54 112l-5 16-1 4-131-42 4-15 94-93 7-7 7-7 16-17 6-6 6-6 77-76 0 0-37 115-3 9-3 9-32 100z m-159-35l-97-97 172-172 7-7 7-7 3-3 2-2 9-9 2-2 7-7 6-6 28-29 53 53 17 18 1 0 27 27-14 14-80 80-6 6-118 118-13 13z m157-230c14 0 25-12 25-26 0-13-11-25-25-25-14 0-25 12-25 25 0 14 11 26 25 26z"/>
<glyph unicode="&#102;" d="M512 181c0-56-45-101-101-101l-311 0c-55 0-100 45-100 101 0 50 37 92 85 100-1 3-1 7-1 11 0 35 28 64 63 64 16 0 31-6 42-15 19 45 45 86 116 86 86 0 127-67 127-138 0-3 0-6 0-9 45-9 80-50 80-99z"/>
<glyph unicode="&#103;" d="M21 315c-11-5-19-14-21-26-1-12 4-23 13-30l105-76 371 292-328-324 143-104c9-6 20-8 31-5 11 3 20 11 23 22l153 418c2 5 1 9-2 12-4 4-8 5-13 3z m72-158l1-5 20-110c2-9 7-16 15-19 7-3 16-3 23 2 29 18 65 42 64 44z"/>
<glyph unicode="&#104;" d="M466 53c12 0 22 4 30 11l-145 145c-3-2-7-5-10-7-11-8-20-14-26-19-7-4-16-9-27-13-12-5-22-7-32-7l0 0c-10 0-20 2-32 7-11 4-20 9-27 13-6 5-15 11-26 19-3 2-7 5-10 7l-145-145c8-7 18-11 30-11z m-437 248c-11 7-21 15-29 24l0-220 128 128c-26 17-59 40-99 68z m454 0c-38-27-72-49-99-69l128-127 0 220c-8-9-18-17-29-24z m-17 154l-420 0c-15 0-26-5-34-15-8-10-12-22-12-37 0-12 5-25 16-39 10-14 21-25 33-33 7-4 26-18 59-41 17-12 33-22 46-32 11-7 21-14 29-20 0 0 2-1 4-3 2-1 5-3 8-5 6-5 11-9 15-11 4-3 9-6 15-10 6-3 11-6 16-7 6-2 10-3 15-3l0 0c5 0 9 1 15 3 5 1 10 4 16 7 6 4 11 7 15 10 4 2 9 6 15 11 3 2 6 4 8 5 2 2 4 3 4 3 7 5 16 11 29 20 24 17 59 41 105 73 14 10 26 22 35 35 9 14 14 28 14 43 0 13-5 24-14 33-9 9-19 13-32 13z"/>
<glyph unicode="&#105;" d="M256 25c-499 273-138 612 0 383 138 229 499-110 0-383z"/>
<glyph unicode="&#106;" d="M506 263c9 10 8 26-2 35l-229 200c-11 9-27 9-37 0l-230-211c-10-9-11-25-1-35l6-6c9-10 25-11 34-2l17 15 0-225c0-14 11-25 25-25l90 0c13 0 25 11 25 25l0 158 114 0 0-158c0-14 10-25 23-25l95 0c14 0 25 11 25 25l0 222c0 0 5-4 11-9 6-5 18-1 27 9z"/>
<glyph unicode="&#107;" d="M256 512c-141 0-256-115-256-256 0-141 115-256 256-256 141 0 256 115 256 256 0 141-115 256-256 256z m38-427c0-4-4-8-8-8l-60 0c-4 0-8 4-8 8l0 226c0 4 4 8 8 8l60 0c4 0 8-4 8-8z m-38 257c-26 0-47 21-47 46 0 26 21 47 47 47 26 0 47-21 47-47 0-25-21-46-47-46z"/>
<glyph unicode="&#108;" d="M186 292l133 0 0 59c0 9-1 18-5 26-4 8-9 15-15 21-6 5-13 10-21 14-8 3-16 5-25 5-10 0-18-2-26-5-8-4-15-9-21-15-6-6-11-13-15-21-3-8-5-16-5-26z m289 0c5 0 9-1 12-5 4-3 5-8 5-12l0-263c0-5-1-9-5-13-3-3-7-5-12-5l-438 0c-5 0-9 2-12 5-4 4-5 8-5 13l0 263c0 4 1 9 5 12 3 4 7 5 12 5l55 0 0 58c0 23 4 43 12 63 9 20 21 37 35 52 14 14 31 26 51 34 20 9 40 13 63 13 22 0 43-4 62-13 20-8 37-20 52-34 14-15 26-32 34-52 9-20 13-40 13-63l0-58 61 0z"/>
<glyph unicode="&#109;" d="M309 395c24-14 40-40 43-69 10-4 21-7 32-7 41 0 75 34 75 75 0 42-34 75-75 75-41 0-74-33-75-74z m-49-153c41 0 75 33 75 75 0 41-34 75-75 75-42 0-75-34-75-75 0-42 33-75 75-75z m32-5l-64 0c-53 0-96-44-96-97l0-78 0-1 5-1c51-16 95-22 131-22 71 0 112 21 114 22l5 2 1 0 0 78c0 53-43 97-96 97z m124 77l-63 0c-1-25-12-48-29-64 47-14 82-58 82-110l0-24c62 3 98 20 100 21l5 3 1 0 0 78c0 53-43 96-96 96z m-288 5c15 0 28 4 40 12 4 24 17 45 35 59 0 1 0 3 0 4 0 42-34 75-75 75-41 0-75-33-75-75 0-41 34-75 75-75z m67-69c-17 16-27 39-28 64-2 0-5 0-7 0l-64 0c-53 0-96-43-96-96l0-78 0-1 6-2c40-13 76-18 108-20l0 23c0 52 34 96 81 110z"/>
<glyph unicode="&#110;" d="M256 512c-14 0-28-1-41-3 6-3 13-4 23-3 35 1 56-5 31-15-24-10-20-20-8-21 11-1 38 11 47 0 9-11-10-29 1-49 18-29-42-36-57-58-14-21-22-44-6-75 17-30 21-12 50-15 57-7 40-51 110-65 27-6 8-64-39-92-45-27-31-58-96-79-15-5-27-2-15 15 23 33 21 71 0 87-21 17-45 21-39 47 5 25 28 34 29 57 2 23-34 99-78 84-25-9-74 23-71 65 3 49 40 57 32 86 0 0 0 0 0 0-77-44-129-127-129-222 0-141 115-256 256-256 141 0 256 115 256 256 0 141-115 256-256 256z"/>
<glyph unicode="&#111;" d="M256 160c-26 0-47-21-47-46 0-26 21-47 47-47 26 0 47 21 47 47 0 25-21 46-47 46z m251 164c-63 74-154 117-251 117-97 0-188-43-251-117-8-10-7-25 3-33 5-4 10-6 15-6 7 0 14 3 18 9 54 64 132 100 215 100 83 0 161-36 215-100 4-6 11-9 18-9 5 0 10 2 15 6 10 8 11 23 3 33z m-251 23c-69 0-134-30-179-83-8-10-7-25 3-33 4-4 10-6 15-6 7 0 13 3 18 9 36 42 88 67 143 67 55 0 107-25 143-67 5-6 11-9 18-9 5 0 11 2 15 6 10 8 11 23 3 33-45 53-110 83-179 83z m0-93c-41 0-81-18-107-50-9-10-7-25 3-33 4-4 9-6 15-6 6 0 13 3 17 9 18 21 44 33 72 33 28 0 54-12 72-33 4-6 11-9 17-9 6 0 11 2 15 6 10 8 12 23 3 33-26 32-66 50-107 50z"/>
<glyph unicode="&#112;" d="M464 287c5 0 9-1 12-5 3-3 5-7 5-12l0-249c0-5-2-10-5-13-3-3-7-4-12-4l-416 0c-5 0-9 1-12 4-3 3-5 8-5 13l0 249c0 5 2 9 5 12 3 4 7 5 12 5l61 0 0 71c0 21 4 41 12 60 8 19 19 35 33 49 14 14 30 25 49 33 18 8 38 12 60 12 21 0 40-4 58-12 19-8 35-19 49-32 14-14 25-30 33-48 8-18 12-38 13-59 0 0 0-1 0-3 0-3-1-6-3-9-3-2-6-4-9-4l-66 0c-4 0-7 2-9 4-2 3-4 6-4 9 0 9-1 17-4 25-4 7-8 14-14 20-6 6-12 10-20 13-8 4-16 5-24 5-9 0-17-1-25-5-8-3-14-7-20-13-6-6-10-13-14-20-3-8-4-16-4-25l0-71z"/>
<glyph unicode="&#113;" d="M493 293l-50 9c-4 15-10 29-17 43l33 40c7 8 7 21-1 29l-20 23c-7 8-19 10-29 4l-43-28c-19 14-41 24-64 29l-8 51c-2 11-12 19-23 19l-30 0c-11 0-20-8-22-19l-9-51c-19-4-37-12-53-22l-42 29c-8 7-21 6-28-2l-22-22c-8-7-9-20-2-28l29-42c-10-16-17-34-22-53l-51-9c-11-2-19-11-19-22l0-30c0-11 8-21 19-22l51-9c4-16 10-31 17-44l-32-41c-7-8-7-20 0-28l21-23c7-8 19-10 28-4l44 27c19-12 40-22 63-27l8-51c2-11 11-19 22-19l31 0c10 0 20 8 22 19l8 51c19 4 37 12 53 22l43-31c9-6 21-5 29 2l22 22c7 8 8 20 2 29l-31 43c10 16 18 34 23 53l50 9c11 1 19 11 19 22l0 30c0 11-8 20-19 22z m-236-133c-53 0-96 43-96 96 0 53 43 96 96 96 53 0 96-43 96-96 0-53-43-96-96-96z"/>
<glyph unicode="&#114;" d="M42 405c-24 0-42 18-42 42 0 24 18 44 42 44l427 0c24 0 43-20 43-44 0-24-19-42-43-42z m427-105c24 0 43-19 43-44 0-24-19-42-43-42l-427 0c-24 0-42 18-42 42 0 25 18 44 42 44z m0-192c24 0 43-18 43-42 0-25-19-44-43-44l-427 0c-24 0-42 19-42 44 0 24 18 42 42 42z"/>
<glyph unicode="&#115;" d="M21 15l470 0c7 0 13 2 17 7 3 4 4 9 4 14-11 86-64 157-137 196-30-31-72-50-119-50-47 0-89 19-119 50-73-39-126-110-137-196-1-5 1-10 4-14 4-5 10-7 17-7z m129 235c3-3 5-5 8-8 26-23 61-37 98-37 37 0 72 14 98 37 3 3 5 5 8 8 3 3 6 6 8 9 20 25 33 57 33 92 0 81-66 147-147 147-81 0-147-66-147-147 0-35 13-67 33-92 2-3 5-6 8-9z"/>
<glyph unicode="&#116;" d="M469 383l-75 0 0 72c0 16-13 29-29 29l-218 0c-16 0-29-13-29-29l0-72-75 0c-24 0-43-19-43-43l0-273c0-24 19-43 43-43l426 0c24 0 43 19 43 43l0 273c0 24-19 43-43 43z m-294 44l162 0 0-44-162 0z"/>
<glyph unicode="&#117;" d="M478 384c-71 122-228 164-350 94-122-71-164-228-94-350 71-122 228-164 350-94 122 71 164 228 94 350z m-120-305c-98-57-223-23-279 75-57 98-23 223 75 279 98 57 223 23 279-75 57-98 23-223-75-279z m-10 187l-134 79c-12 7-22 1-22-13l1-155c0-14 10-20 22-13l133 77c12 7 12 18 0 25z"/>
<glyph unicode="&#118;" d="M492 388c-13 14-29 20-48 20l-60 0-14 36c-3 9-9 17-18 23-9 6-18 9-28 9l-136 0c-10 0-19-3-28-9-9-6-15-14-18-23l-14-36-60 0c-19 0-35-6-48-20-13-13-20-29-20-48l0-239c0-19 7-35 20-48 13-14 29-20 48-20l376 0c19 0 35 6 48 20 13 13 20 29 20 48l0 239c0 19-7 35-20 48z m-152-252c-23-23-51-35-84-35-33 0-61 12-84 35-24 23-35 52-35 84 0 33 11 61 35 85 23 23 51 35 84 35 33 0 61-12 84-35 24-24 35-52 35-85 0-32-11-61-35-84z m-84 161c-21 0-39-7-54-22-15-15-23-33-23-55 0-21 8-39 23-54 15-15 33-22 54-22 21 0 39 7 54 22 15 15 23 33 23 54 0 22-8 40-23 55-15 15-33 22-54 22z"/>
<glyph unicode="&#119;" d="M357 455l0-78c41-31 68-80 68-135 0-93-76-169-169-169-93 0-169 76-169 169 0 55 27 104 68 135l0 78c-80-37-135-119-135-213 0-131 105-236 236-236 131 0 236 105 236 236 0 94-55 176-135 213z m-67-179l0 202c0 19-15 34-34 34-19 0-34-15-34-34l0-202c0-19 15-34 34-34 19 0 34 15 34 34z"/>
<glyph unicode="&#120;" d="M438 510l-219-67c-26-8-48-35-48-62l0-228c0 0 0-3 0-3 0 0-16 11-51 6-52-8-94-48-94-90 0-41 42-67 94-60 52 8 90 46 90 88 0 0 0 179 0 198 0 18 22 26 22 26l194 61c0 0 21 7 21-13 0-20 0-158 0-158 0 0 0 0 0 0 0 0-19 11-55 7-52-7-94-46-94-87 0-42 42-69 94-62 52 6 94 45 94 87l0 323c0 26-21 42-48 34z"/>
</font>
</defs>
</svg>
